{"accessors":[{"bufferView":0,"byteOffset":0,"componentType":5126,"count":4,"max":[1.1614329833984377,2.7792783203125,2.0],"min":[0.0270998477935791,0.0,2.6367160899098964e-8],"type":"VEC3"},{"bufferView":0,"byteOffset":48,"componentType":5126,"count":4,"max":[2.462411376953125,2.7792783203125,2.6367160899098964e-8],"min":[0.0270998477935791,0.0,2.6367160899098964e-8],"type":"VEC3"},{"bufferView":0,"byteOffset":96,"componentType":5126,"count":4,"max":[1.3695607910156252,0.0,2.0],"min":[0.0270998477935791,0.0,2.6367160899098964e-8],"type":"VEC3"},{"bufferView":0,"byteOffset":144,"componentType":5126,"count":4,"max":[2.462411376953125,2.7792783203125,2.0],"min":[0.0270998477935791,0.0,2.0],"type":"VEC3"},{"bufferView":0,"byteOffset":192,"componentType":5126,"count":4,"max":[2.462411376953125,2.7792783203125,2.0],"min":[1.1614329833984377,2.7792783203125,2.6367160899098964e-8],"type":"VEC3"},{"bufferView":0,"byteOffset":240,"componentType":5126,"count":4,"max":[2.462411376953125,2.7792783203125,2.0],"min":[1.3695607910156252,0.0,2.6367160899098964e-8],"type":"VEC3"},{"bufferView":0,"byteOffset":288,"componentType":5126,"count":4,"max":[4.8283798828125,8.57620703125,2.0],"min":[4.64469580078125,8.01492578125,2.6367160899098964e-8],"type":"VEC3"},{"bufferView":0,"byteOffset":336,"componentType":5126,"count":4,"max":[4.64469580078125,9.5547939453125,2.0],"min":[4.64469580078125,8.57620703125,2.6367160899098964e-8],"type":"VEC3"},{"bufferView":0,"byteOffset":384,"componentType":5126,"count":9,"max":[7.70590234375,9.5547939453125,2.6367160899098964e-8],"min":[4.64469580078125,3.8092531738281254,2.6367160899098964e-8],"type":"VEC3"},{"bufferView":0,"byteOffset":492,"componentType":5126,"count":4,"max":[4.923369140625,8.01492578125,2.0],"min":[4.8283798828125,7.72753662109375,2.6367160899098964e-8],"type":"VEC3"},{"bufferView":0,"byteOffset":540,"componentType":5126,"count":9,"max":[7.70590234375,9.5547939453125,2.0],"min":[4.64469580078125,3.8092531738281254,2.0],"type":"VEC3"},{"bufferView":0,"byteOffset":648,"componentType":5126,"count":4,"max":[5.39801171875,9.5547939453125,2.0],"min":[4.64469580078125,9.5547939453125,2.6367160899098964e-8],"type":"VEC3"},{"bufferView":0,"byteOffset":696,"componentType":5126,"count":4,"max":[5.018357421875,7.72753662109375,2.0],"min":[4.923369140625,7.45589453125,2.6367160899098964e-8],"type":"VEC3"},{"bufferView":0,"byteOffset":744,"componentType":5126,"count":4,"max":[7.70590234375,9.5547939453125,2.0],"min":[5.39801171875,3.8092531738281254,2.6367160899098964e-8],"type":"VEC3"},{"bufferView":0,"byteOffset":792,"componentType":5126,"count":4,"max":[5.113345703125,7.45589453125,2.0],"min":[5.018357421875,7.198875,2.6367160899098964e-8],"type":"VEC3"},{"bufferView":0,"byteOffset":840,"componentType":5126,"count":4,"max":[7.70590234375,3.8092531738281254,2.0],"min":[6.43329638671875,3.8092531738281254,2.6367160899098964e-8],"type":"VEC3"},{"bufferView":0,"byteOffset":888,"componentType":5126,"count":4,"max":[6.43329638671875,7.198875,2.0],"min":[5.113345703125,3.8092531738281254,2.6367160899098964e-8],"type":"VEC3"},{"bufferView":0,"byteOffset":936,"componentType":5126,"count":4,"max":[1.58141259765625,3.8078430175781254,2.0],"min":[1.161286376953125,2.7792783203125,2.6367160899098964e-8],"type":"VEC3"},{"bufferView":0,"byteOffset":984,"componentType":5126,"count":6,"max":[6.8235654296875,3.8090527343750004,2.6367160899098964e-8],"min":[1.161286376953125,2.7792783203125,2.6367160899098964e-8],"type":"VEC3"},{"bufferView":0,"byteOffset":1056,"componentType":5126,"count":4,"max":[2.463233642578125,2.7792783203125,2.0],"min":[1.161286376953125,2.7792783203125,2.6367160899098964e-8],"type":"VEC3"},{"bufferView":0,"byteOffset":1104,"componentType":5126,"count":6,"max":[6.8235654296875,3.8090527343750004,2.0],"min":[1.161286376953125,2.7792783203125,2.0],"type":"VEC3"},{"bufferView":0,"byteOffset":1176,"componentType":5126,"count":4,"max":[6.43281494140625,3.8090527343750004,2.0],"min":[1.58141259765625,3.8078430175781254,2.6367160899098964e-8],"type":"VEC3"},{"bufferView":0,"byteOffset":1224,"componentType":5126,"count":4,"max":[6.8235654296875,2.78966162109375,2.0],"min":[2.463233642578125,2.7792783203125,2.6367160899098964e-8],"type":"VEC3"},{"bufferView":0,"byteOffset":1272,"componentType":5126,"count":4,"max":[6.8235654296875,3.8090527343750004,2.0],"min":[6.43281494140625,3.8090527343750004,2.6367160899098964e-8],"type":"VEC3"},{"bufferView":0,"byteOffset":1320,"componentType":5126,"count":4,"max":[6.8235654296875,3.8090527343750004,2.0],"min":[6.8235654296875,2.78966162109375,2.6367160899098964e-8],"type":"VEC3"},{"bufferView":0,"byteOffset":1368,"componentType":5126,"count":4,"max":[7.9138818359375009,2.789450439453125,2.0],"min":[6.8238017578125,0.00037302911281585695,2.6367160899098964e-8],"type":"VEC3"},{"bufferView":0,"byteOffset":1416,"componentType":5126,"count":4,"max":[6.8238017578125,3.80888037109375,2.0],"min":[6.8238017578125,2.789450439453125,2.6367160899098964e-8],"type":"VEC3"},{"bufferView":0,"byteOffset":1464,"componentType":5126,"count":5,"max":[9.236099609375,3.80888037109375,2.6367160899098964e-8],"min":[6.8238017578125,0.00037302911281585695,2.6367160899098964e-8],"type":"VEC3"},{"bufferView":0,"byteOffset":1524,"componentType":5126,"count":4,"max":[9.236099609375,0.00037302911281585695,2.0],"min":[7.9138818359375009,0.00037302911281585695,2.6367160899098964e-8],"type":"VEC3"},{"bufferView":0,"byteOffset":1572,"componentType":5126,"count":5,"max":[9.236099609375,3.80888037109375,2.0],"min":[6.8238017578125,0.00037302911281585695,2.0],"type":"VEC3"},{"bufferView":0,"byteOffset":1632,"componentType":5126,"count":4,"max":[7.7060673828125,3.80888037109375,2.0],"min":[6.8238017578125,3.80888037109375,2.6367160899098964e-8],"type":"VEC3"},{"bufferView":0,"byteOffset":1680,"componentType":5126,"count":4,"max":[9.236099609375,3.80888037109375,2.0],"min":[7.7060673828125,0.00037302911281585695,2.6367160899098964e-8],"type":"VEC3"},{"bufferView":0,"byteOffset":1728,"componentType":5126,"count":4,"max":[2.8633642578125,3.80788134765625,2.0],"min":[1.5810455322265627,3.80788134765625,2.6367160899098964e-8],"type":"VEC3"},{"bufferView":0,"byteOffset":1776,"componentType":5126,"count":4,"max":[3.92616552734375,9.5547939453125,2.0],"min":[1.5810455322265627,3.80788134765625,2.6367160899098964e-8],"type":"VEC3"},{"bufferView":0,"byteOffset":1824,"componentType":5126,"count":9,"max":[4.64469580078125,9.5547939453125,2.6367160899098964e-8],"min":[1.5810455322265627,3.80788134765625,2.6367160899098964e-8],"type":"VEC3"},{"bufferView":0,"byteOffset":1932,"componentType":5126,"count":4,"max":[4.082107177734375,6.9434814453125,2.0],"min":[2.8633642578125,3.80788134765625,2.6367160899098964e-8],"type":"VEC3"},{"bufferView":0,"byteOffset":1980,"componentType":5126,"count":9,"max":[4.64469580078125,9.5547939453125,2.0],"min":[1.5810455322265627,3.80788134765625,2.0],"type":"VEC3"},{"bufferView":0,"byteOffset":2088,"componentType":5126,"count":4,"max":[4.64469580078125,9.5547939453125,2.0],"min":[3.92616552734375,9.5547939453125,2.6367160899098964e-8],"type":"VEC3"},{"bufferView":0,"byteOffset":2136,"componentType":5126,"count":4,"max":[4.2380483398437509,7.36482470703125,2.0],"min":[4.082107177734375,6.9434814453125,2.6367160899098964e-8],"type":"VEC3"},{"bufferView":0,"byteOffset":2184,"componentType":5126,"count":4,"max":[4.64469580078125,9.5547939453125,2.0],"min":[4.64469580078125,8.5765361328125,2.6367160899098964e-8],"type":"VEC3"},{"bufferView":0,"byteOffset":2232,"componentType":5126,"count":4,"max":[4.37359765625,7.7456640625,2.0],"min":[4.2380483398437509,7.36482470703125,2.6367160899098964e-8],"type":"VEC3"},{"bufferView":0,"byteOffset":2280,"componentType":5126,"count":4,"max":[4.64469580078125,8.5765361328125,2.0],"min":[4.48905419921875,8.08656396484375,2.6367160899098964e-8],"type":"VEC3"},{"bufferView":0,"byteOffset":2328,"componentType":5126,"count":4,"max":[4.48905419921875,8.08656396484375,2.0],"min":[4.37359765625,7.7456640625,2.6367160899098964e-8],"type":"VEC3"},{"bufferView":1,"byteOffset":0,"componentType":5126,"count":4,"type":"VEC3"},{"bufferView":1,"byteOffset":48,"componentType":5126,"count":4,"type":"VEC3"},{"bufferView":1,"byteOffset":96,"componentType":5126,"count":4,"type":"VEC3"},{"bufferView":1,"byteOffset":144,"componentType":5126,"count":4,"type":"VEC3"},{"bufferView":1,"byteOffset":192,"componentType":5126,"count":4,"type":"VEC3"},{"bufferView":1,"byteOffset":240,"componentType":5126,"count":4,"type":"VEC3"},{"bufferView":1,"byteOffset":288,"componentType":5126,"count":4,"type":"VEC3"},{"bufferView":1,"byteOffset":336,"componentType":5126,"count":4,"type":"VEC3"},{"bufferView":1,"byteOffset":384,"componentType":5126,"count":9,"type":"VEC3"},{"bufferView":1,"byteOffset":492,"componentType":5126,"count":4,"type":"VEC3"},{"bufferView":1,"byteOffset":540,"componentType":5126,"count":9,"type":"VEC3"},{"bufferView":1,"byteOffset":648,"componentType":5126,"count":4,"type":"VEC3"},{"bufferView":1,"byteOffset":696,"componentType":5126,"count":4,"type":"VEC3"},{"bufferView":1,"byteOffset":744,"componentType":5126,"count":4,"type":"VEC3"},{"bufferView":1,"byteOffset":792,"componentType":5126,"count":4,"type":"VEC3"},{"bufferView":1,"byteOffset":840,"componentType":5126,"count":4,"type":"VEC3"},{"bufferView":1,"byteOffset":888,"componentType":5126,"count":4,"type":"VEC3"},{"bufferView":1,"byteOffset":936,"componentType":5126,"count":4,"type":"VEC3"},{"bufferView":1,"byteOffset":984,"componentType":5126,"count":6,"type":"VEC3"},{"bufferView":1,"byteOffset":1056,"componentType":5126,"count":4,"type":"VEC3"},{"bufferView":1,"byteOffset":1104,"componentType":5126,"count":6,"type":"VEC3"},{"bufferView":1,"byteOffset":1176,"componentType":5126,"count":4,"type":"VEC3"},{"bufferView":1,"byteOffset":1224,"componentType":5126,"count":4,"type":"VEC3"},{"bufferView":1,"byteOffset":1272,"componentType":5126,"count":4,"type":"VEC3"},{"bufferView":1,"byteOffset":1320,"componentType":5126,"count":4,"type":"VEC3"},{"bufferView":1,"byteOffset":1368,"componentType":5126,"count":4,"type":"VEC3"},{"bufferView":1,"byteOffset":1416,"componentType":5126,"count":4,"type":"VEC3"},{"bufferView":1,"byteOffset":1464,"componentType":5126,"count":5,"type":"VEC3"},{"bufferView":1,"byteOffset":1524,"componentType":5126,"count":4,"type":"VEC3"},{"bufferView":1,"byteOffset":1572,"componentType":5126,"count":5,"type":"VEC3"},{"bufferView":1,"byteOffset":1632,"componentType":5126,"count":4,"type":"VEC3"},{"bufferView":1,"byteOffset":1680,"componentType":5126,"count":4,"type":"VEC3"},{"bufferView":1,"byteOffset":1728,"componentType":5126,"count":4,"type":"VEC3"},{"bufferView":1,"byteOffset":1776,"componentType":5126,"count":4,"type":"VEC3"},{"bufferView":1,"byteOffset":1824,"componentType":5126,"count":9,"type":"VEC3"},{"bufferView":1,"byteOffset":1932,"componentType":5126,"count":4,"type":"VEC3"},{"bufferView":1,"byteOffset":1980,"componentType":5126,"count":9,"type":"VEC3"},{"bufferView":1,"byteOffset":2088,"componentType":5126,"count":4,"type":"VEC3"},{"bufferView":1,"byteOffset":2136,"componentType":5126,"count":4,"type":"VEC3"},{"bufferView":1,"byteOffset":2184,"componentType":5126,"count":4,"type":"VEC3"},{"bufferView":1,"byteOffset":2232,"componentType":5126,"count":4,"type":"VEC3"},{"bufferView":1,"byteOffset":2280,"componentType":5126,"count":4,"type":"VEC3"},{"bufferView":1,"byteOffset":2328,"componentType":5126,"count":4,"type":"VEC3"},{"bufferView":2,"byteOffset":0,"componentType":5123,"count":6,"type":"SCALAR"},{"bufferView":2,"byteOffset":12,"componentType":5123,"count":6,"type":"SCALAR"},{"bufferView":2,"byteOffset":24,"componentType":5123,"count":6,"type":"SCALAR"},{"bufferView":2,"byteOffset":36,"componentType":5123,"count":6,"type":"SCALAR"},{"bufferView":2,"byteOffset":48,"componentType":5123,"count":6,"type":"SCALAR"},{"bufferView":2,"byteOffset":60,"componentType":5123,"count":6,"type":"SCALAR"},{"bufferView":2,"byteOffset":72,"componentType":5123,"count":6,"type":"SCALAR"},{"bufferView":2,"byteOffset":84,"componentType":5123,"count":6,"type":"SCALAR"},{"bufferView":2,"byteOffset":96,"componentType":5123,"count":21,"type":"SCALAR"},{"bufferView":2,"byteOffset":140,"componentType":5123,"count":6,"type":"SCALAR"},{"bufferView":2,"byteOffset":152,"componentType":5123,"count":21,"type":"SCALAR"},{"bufferView":2,"byteOffset":196,"componentType":5123,"count":6,"type":"SCALAR"},{"bufferView":2,"byteOffset":208,"componentType":5123,"count":6,"type":"SCALAR"},{"bufferView":2,"byteOffset":220,"componentType":5123,"count":6,"type":"SCALAR"},{"bufferView":2,"byteOffset":232,"componentType":5123,"count":6,"type":"SCALAR"},{"bufferView":2,"byteOffset":244,"componentType":5123,"count":6,"type":"SCALAR"},{"bufferView":2,"byteOffset":256,"componentType":5123,"count":6,"type":"SCALAR"},{"bufferView":2,"byteOffset":268,"componentType":5123,"count":6,"type":"SCALAR"},{"bufferView":2,"byteOffset":280,"componentType":5123,"count":12,"type":"SCALAR"},{"bufferView":2,"byteOffset":304,"componentType":5123,"count":6,"type":"SCALAR"},{"bufferView":2,"byteOffset":316,"componentType":5123,"count":12,"type":"SCALAR"},{"bufferView":2,"byteOffset":340,"componentType":5123,"count":6,"type":"SCALAR"},{"bufferView":2,"byteOffset":352,"componentType":5123,"count":6,"type":"SCALAR"},{"bufferView":2,"byteOffset":364,"componentType":5123,"count":6,"type":"SCALAR"},{"bufferView":2,"byteOffset":376,"componentType":5123,"count":6,"type":"SCALAR"},{"bufferView":2,"byteOffset":388,"componentType":5123,"count":6,"type":"SCALAR"},{"bufferView":2,"byteOffset":400,"componentType":5123,"count":6,"type":"SCALAR"},{"bufferView":2,"byteOffset":412,"componentType":5123,"count":9,"type":"SCALAR"},{"bufferView":2,"byteOffset":432,"componentType":5123,"count":6,"type":"SCALAR"},{"bufferView":2,"byteOffset":444,"componentType":5123,"count":9,"type":"SCALAR"},{"bufferView":2,"byteOffset":464,"componentType":5123,"count":6,"type":"SCALAR"},{"bufferView":2,"byteOffset":476,"componentType":5123,"count":6,"type":"SCALAR"},{"bufferView":2,"byteOffset":488,"componentType":5123,"count":6,"type":"SCALAR"},{"bufferView":2,"byteOffset":500,"componentType":5123,"count":6,"type":"SCALAR"},{"bufferView":2,"byteOffset":512,"componentType":5123,"count":21,"type":"SCALAR"},{"bufferView":2,"byteOffset":556,"componentType":5123,"count":6,"type":"SCALAR"},{"bufferView":2,"byteOffset":568,"componentType":5123,"count":21,"type":"SCALAR"},{"bufferView":2,"byteOffset":612,"componentType":5123,"count":6,"type":"SCALAR"},{"bufferView":2,"byteOffset":624,"componentType":5123,"count":6,"type":"SCALAR"},{"bufferView":2,"byteOffset":636,"componentType":5123,"count":6,"type":"SCALAR"},{"bufferView":2,"byteOffset":648,"componentType":5123,"count":6,"type":"SCALAR"},{"bufferView":2,"byteOffset":660,"componentType":5123,"count":6,"type":"SCALAR"},{"bufferView":2,"byteOffset":672,"componentType":5123,"count":6,"type":"SCALAR"}],"asset":{"generator":"Open CASCADE Technology 7.7 [dev.opencascade.org]","version":"2.0"},"bufferViews":[{"buffer":0,"byteLength":2376,"byteOffset":0,"byteStride":12,"target":34962},{"buffer":0,"byteLength":2376,"byteOffset":2376,"byteStride":12,"target":34962},{"buffer":0,"byteLength":684,"byteOffset":4752,"target":34963}],"buffers":[{"byteLength":5436,"uri":"decomposed_A.bin"}],"materials":[{"name":"mat_0","pbrMetallicRoughness":{"baseColorFactor":[0.4292132258415222,0.6354076266288757,0.6394023895263672,1.0]},"doubleSided":true},{"name":"mat_1","pbrMetallicRoughness":{"baseColorFactor":[0.2312360405921936,0.8048798441886902,0.027180233970284463,1.0]},"doubleSided":true},{"name":"mat_2","pbrMetallicRoughness":{"baseColorFactor":[0.0017327425302937627,0.12059616297483444,0.565593421459198,1.0]},"doubleSided":true},{"name":"mat_3","pbrMetallicRoughness":{"baseColorFactor":[0.4266389012336731,0.552041232585907,0.12477868795394898,1.0]},"doubleSided":true},{"name":"mat_4","pbrMetallicRoughness":{"baseColorFactor":[0.6412243247032166,0.13258765637874604,0.6137006282806397,1.0]},"doubleSided":true}],"meshes":[{"name":"mesh_0.stl","primitives":[{"attributes":{"NORMAL":43,"POSITION":0},"indices":86,"material":0,"mode":4},{"attributes":{"NORMAL":44,"POSITION":1},"indices":87,"material":0,"mode":4},{"attributes":{"NORMAL":45,"POSITION":2},"indices":88,"material":0,"mode":4},{"attributes":{"NORMAL":46,"POSITION":3},"indices":89,"material":0,"mode":4},{"attributes":{"NORMAL":47,"POSITION":4},"indices":90,"material":0,"mode":4},{"attributes":{"NORMAL":48,"POSITION":5},"indices":91,"material":0,"mode":4}]},{"name":"mesh_1.stl","primitives":[{"attributes":{"NORMAL":49,"POSITION":6},"indices":92,"material":1,"mode":4},{"attributes":{"NORMAL":50,"POSITION":7},"indices":93,"material":1,"mode":4},{"attributes":{"NORMAL":51,"POSITION":8},"indices":94,"material":1,"mode":4},{"attributes":{"NORMAL":52,"POSITION":9},"indices":95,"material":1,"mode":4},{"attributes":{"NORMAL":53,"POSITION":10},"indices":96,"material":1,"mode":4},{"attributes":{"NORMAL":54,"POSITION":11},"indices":97,"material":1,"mode":4},{"attributes":{"NORMAL":55,"POSITION":12},"indices":98,"material":1,"mode":4},{"attributes":{"NORMAL":56,"POSITION":13},"indices":99,"material":1,"mode":4},{"attributes":{"NORMAL":57,"POSITION":14},"indices":100,"material":1,"mode":4},{"attributes":{"NORMAL":58,"POSITION":15},"indices":101,"material":1,"mode":4},{"attributes":{"NORMAL":59,"POSITION":16},"indices":102,"material":1,"mode":4}]},{"name":"mesh_2.stl","primitives":[{"attributes":{"NORMAL":60,"POSITION":17},"indices":103,"material":2,"mode":4},{"attributes":{"NORMAL":61,"POSITION":18},"indices":104,"material":2,"mode":4},{"attributes":{"NORMAL":62,"POSITION":19},"indices":105,"material":2,"mode":4},{"attributes":{"NORMAL":63,"POSITION":20},"indices":106,"material":2,"mode":4},{"attributes":{"NORMAL":64,"POSITION":21},"indices":107,"material":2,"mode":4},{"attributes":{"NORMAL":65,"POSITION":22},"indices":108,"material":2,"mode":4},{"attributes":{"NORMAL":66,"POSITION":23},"indices":109,"material":2,"mode":4},{"attributes":{"NORMAL":67,"POSITION":24},"indices":110,"material":2,"mode":4}]},{"name":"mesh_3.stl","primitives":[{"attributes":{"NORMAL":68,"POSITION":25},"indices":111,"material":3,"mode":4},{"attributes":{"NORMAL":69,"POSITION":26},"indices":112,"material":3,"mode":4},{"attributes":{"NORMAL":70,"POSITION":27},"indices":113,"material":3,"mode":4},{"attributes":{"NORMAL":71,"POSITION":28},"indices":114,"material":3,"mode":4},{"attributes":{"NORMAL":72,"POSITION":29},"indices":115,"material":3,"mode":4},{"attributes":{"NORMAL":73,"POSITION":30},"indices":116,"material":3,"mode":4},{"attributes":{"NORMAL":74,"POSITION":31},"indices":117,"material":3,"mode":4}]},{"name":"mesh_4.stl","primitives":[{"attributes":{"NORMAL":75,"POSITION":32},"indices":118,"material":4,"mode":4},{"attributes":{"NORMAL":76,"POSITION":33},"indices":119,"material":4,"mode":4},{"attributes":{"NORMAL":77,"POSITION":34},"indices":120,"material":4,"mode":4},{"attributes":{"NORMAL":78,"POSITION":35},"indices":121,"material":4,"mode":4},{"attributes":{"NORMAL":79,"POSITION":36},"indices":122,"material":4,"mode":4},{"attributes":{"NORMAL":80,"POSITION":37},"indices":123,"material":4,"mode":4},{"attributes":{"NORMAL":81,"POSITION":38},"indices":124,"material":4,"mode":4},{"attributes":{"NORMAL":82,"POSITION":39},"indices":125,"material":4,"mode":4},{"attributes":{"NORMAL":83,"POSITION":40},"indices":126,"material":4,"mode":4},{"attributes":{"NORMAL":84,"POSITION":41},"indices":127,"material":4,"mode":4},{"attributes":{"NORMAL":85,"POSITION":42},"indices":128,"material":4,"mode":4}]}],"nodes":[{"children":[1,3,5,7,9],"name":"Unnamed1"},{"children":[2],"name":"world"},{"mesh":0,"name":"mesh_0.stl"},{"children":[4],"name":"world001"},{"mesh":1,"name":"mesh_1.stl"},{"children":[6],"name":"world002"},{"mesh":2,"name":"mesh_2.stl"},{"children":[8],"name":"world003"},{"mesh":3,"name":"mesh_3.stl"},{"children":[10],"name":"world004"},{"mesh":4,"name":"mesh_4.stl"}],"scene":0,"scenes":[{"nodes":[0]}]}